<mxfile host="app.diagrams.net" modified="2024-03-27T09:12:04.014Z" agent="Mozilla/5.0 (Windows NT 10.0; Win64; x64) AppleWebKit/537.36 (KHTML, like Gecko) Chrome/120.0.0.0 YaBrowser/24.1.0.0 Safari/537.36" etag="cZNatFTYe41xtsxvCFki" version="24.1.0" type="device">
  <diagram name="Страница — 1" id="NafmEvv5bupHfz7v_7y0">
    <mxGraphModel dx="1662" dy="1622" grid="1" gridSize="10" guides="1" tooltips="1" connect="1" arrows="1" fold="1" page="1" pageScale="1" pageWidth="827" pageHeight="1169" math="0" shadow="0">
      <root>
        <mxCell id="0" />
        <mxCell id="1" parent="0" />
        <mxCell id="DAt_VKD0Xn_MFGfTd1is-1" value="Пациент" style="rounded=0;whiteSpace=wrap;html=1;" parent="1" vertex="1">
          <mxGeometry x="-170" width="120" height="60" as="geometry" />
        </mxCell>
        <mxCell id="DAt_VKD0Xn_MFGfTd1is-2" value="Регистратор" style="rounded=0;whiteSpace=wrap;html=1;" parent="1" vertex="1">
          <mxGeometry x="110" y="270" width="120" height="60" as="geometry" />
        </mxCell>
        <mxCell id="DAt_VKD0Xn_MFGfTd1is-3" value="База данных пациентов" style="rounded=0;whiteSpace=wrap;html=1;" parent="1" vertex="1">
          <mxGeometry x="-40" y="590" width="120" height="60" as="geometry" />
        </mxCell>
        <mxCell id="DAt_VKD0Xn_MFGfTd1is-4" value="Система оплаты" style="rounded=0;whiteSpace=wrap;html=1;" parent="1" vertex="1">
          <mxGeometry x="620" y="-40" width="120" height="60" as="geometry" />
        </mxCell>
        <mxCell id="DAt_VKD0Xn_MFGfTd1is-5" value="Врач" style="rounded=0;whiteSpace=wrap;html=1;" parent="1" vertex="1">
          <mxGeometry x="-270" y="730" width="120" height="60" as="geometry" />
        </mxCell>
        <mxCell id="DAt_VKD0Xn_MFGfTd1is-7" value="" style="endArrow=none;html=1;rounded=0;entryX=0.75;entryY=1;entryDx=0;entryDy=0;exitX=0.585;exitY=0.027;exitDx=0;exitDy=0;exitPerimeter=0;" parent="1" source="DAt_VKD0Xn_MFGfTd1is-2" target="DAt_VKD0Xn_MFGfTd1is-1" edge="1">
          <mxGeometry width="50" height="50" relative="1" as="geometry">
            <mxPoint x="390" y="350" as="sourcePoint" />
            <mxPoint x="440" y="300" as="targetPoint" />
          </mxGeometry>
        </mxCell>
        <mxCell id="DAt_VKD0Xn_MFGfTd1is-8" value="" style="endArrow=none;html=1;rounded=0;exitX=1;exitY=0.25;exitDx=0;exitDy=0;entryX=0.25;entryY=1;entryDx=0;entryDy=0;" parent="1" source="DAt_VKD0Xn_MFGfTd1is-2" target="DAt_VKD0Xn_MFGfTd1is-4" edge="1">
          <mxGeometry width="50" height="50" relative="1" as="geometry">
            <mxPoint x="390" y="350" as="sourcePoint" />
            <mxPoint x="490" y="100" as="targetPoint" />
          </mxGeometry>
        </mxCell>
        <mxCell id="DAt_VKD0Xn_MFGfTd1is-13" value="" style="endArrow=classic;html=1;rounded=0;" parent="1" edge="1">
          <mxGeometry width="50" height="50" relative="1" as="geometry">
            <mxPoint x="30" y="130" as="sourcePoint" />
            <mxPoint x="130" y="210" as="targetPoint" />
          </mxGeometry>
        </mxCell>
        <mxCell id="DAt_VKD0Xn_MFGfTd1is-14" value="1 : отправка запроса на регистрацию&lt;div&gt;4 : запрос на запись к врачу&lt;/div&gt;&lt;div&gt;7: выбор нужного окна&lt;/div&gt;&lt;div&gt;8: отправка запроса на оплату&lt;/div&gt;&lt;div&gt;16: отмена записи&lt;/div&gt;&lt;div&gt;17: запрос на возврат средств&lt;/div&gt;" style="text;html=1;align=center;verticalAlign=middle;resizable=0;points=[];autosize=1;strokeColor=none;fillColor=none;" parent="1" vertex="1">
          <mxGeometry x="50" y="75" width="230" height="100" as="geometry" />
        </mxCell>
        <mxCell id="DAt_VKD0Xn_MFGfTd1is-15" value="" style="endArrow=classic;html=1;rounded=0;" parent="1" edge="1">
          <mxGeometry width="50" height="50" relative="1" as="geometry">
            <mxPoint x="100" y="410" as="sourcePoint" />
            <mxPoint x="80" y="490" as="targetPoint" />
          </mxGeometry>
        </mxCell>
        <mxCell id="DAt_VKD0Xn_MFGfTd1is-16" value="" style="endArrow=none;html=1;rounded=0;exitX=0.852;exitY=0.05;exitDx=0;exitDy=0;exitPerimeter=0;entryX=0.25;entryY=1;entryDx=0;entryDy=0;" parent="1" source="DAt_VKD0Xn_MFGfTd1is-3" target="DAt_VKD0Xn_MFGfTd1is-2" edge="1">
          <mxGeometry width="50" height="50" relative="1" as="geometry">
            <mxPoint x="390" y="350" as="sourcePoint" />
            <mxPoint x="440" y="300" as="targetPoint" />
          </mxGeometry>
        </mxCell>
        <mxCell id="DAt_VKD0Xn_MFGfTd1is-17" value="3 : добавление информации о пациенте в БД&lt;div&gt;20: обновление информации о пациенте&lt;/div&gt;" style="text;html=1;align=center;verticalAlign=middle;resizable=0;points=[];autosize=1;strokeColor=none;fillColor=none;" parent="1" vertex="1">
          <mxGeometry x="-70" y="420" width="280" height="40" as="geometry" />
        </mxCell>
        <mxCell id="DAt_VKD0Xn_MFGfTd1is-18" value="" style="endArrow=classic;html=1;rounded=0;exitX=1.029;exitY=0.206;exitDx=0;exitDy=0;exitPerimeter=0;" parent="1" edge="1">
          <mxGeometry width="50" height="50" relative="1" as="geometry">
            <mxPoint x="100" y="224.42000000000007" as="sourcePoint" />
            <mxPoint x="10" y="150" as="targetPoint" />
          </mxGeometry>
        </mxCell>
        <mxCell id="DAt_VKD0Xn_MFGfTd1is-19" value="2 : регистрация пациента&lt;div&gt;6: сообщение пациенту свободных окон&lt;br&gt;&lt;/div&gt;&lt;div&gt;9: генерация счета для оплаты&lt;/div&gt;&lt;div&gt;&lt;div&gt;&lt;br&gt;&lt;/div&gt;&lt;/div&gt;" style="text;html=1;align=center;verticalAlign=middle;resizable=0;points=[];autosize=1;strokeColor=none;fillColor=none;" parent="1" vertex="1">
          <mxGeometry x="-150" y="190" width="250" height="70" as="geometry" />
        </mxCell>
        <mxCell id="DAt_VKD0Xn_MFGfTd1is-20" value="" style="endArrow=none;html=1;rounded=0;exitX=1;exitY=0.5;exitDx=0;exitDy=0;entryX=0;entryY=0.25;entryDx=0;entryDy=0;" parent="1" source="DAt_VKD0Xn_MFGfTd1is-1" target="DAt_VKD0Xn_MFGfTd1is-4" edge="1">
          <mxGeometry width="50" height="50" relative="1" as="geometry">
            <mxPoint x="310" y="285" as="sourcePoint" />
            <mxPoint x="570" y="100" as="targetPoint" />
          </mxGeometry>
        </mxCell>
        <mxCell id="DAt_VKD0Xn_MFGfTd1is-21" value="" style="endArrow=classic;html=1;rounded=0;" parent="1" edge="1">
          <mxGeometry width="50" height="50" relative="1" as="geometry">
            <mxPoint x="200" y="20" as="sourcePoint" />
            <mxPoint x="320" y="10" as="targetPoint" />
          </mxGeometry>
        </mxCell>
        <mxCell id="DAt_VKD0Xn_MFGfTd1is-22" value="10: оплата счета" style="text;html=1;align=center;verticalAlign=middle;resizable=0;points=[];autosize=1;strokeColor=none;fillColor=none;" parent="1" vertex="1">
          <mxGeometry x="215" y="20" width="120" height="30" as="geometry" />
        </mxCell>
        <mxCell id="DAt_VKD0Xn_MFGfTd1is-23" value="" style="endArrow=none;html=1;rounded=0;exitX=1;exitY=0.25;exitDx=0;exitDy=0;entryX=0.695;entryY=0.993;entryDx=0;entryDy=0;entryPerimeter=0;" parent="1" source="DAt_VKD0Xn_MFGfTd1is-3" target="DAt_VKD0Xn_MFGfTd1is-4" edge="1">
          <mxGeometry width="50" height="50" relative="1" as="geometry">
            <mxPoint x="142" y="593" as="sourcePoint" />
            <mxPoint x="300" y="332" as="targetPoint" />
          </mxGeometry>
        </mxCell>
        <mxCell id="DAt_VKD0Xn_MFGfTd1is-24" value="&lt;div&gt;&lt;br&gt;&lt;/div&gt;" style="text;html=1;align=center;verticalAlign=middle;resizable=0;points=[];autosize=1;strokeColor=none;fillColor=none;" parent="1" vertex="1">
          <mxGeometry x="460" y="200" width="20" height="30" as="geometry" />
        </mxCell>
        <mxCell id="DAt_VKD0Xn_MFGfTd1is-28" value="" style="endArrow=none;html=1;rounded=0;exitX=0.133;exitY=1.023;exitDx=0;exitDy=0;exitPerimeter=0;" parent="1" source="DAt_VKD0Xn_MFGfTd1is-2" target="DAt_VKD0Xn_MFGfTd1is-5" edge="1">
          <mxGeometry width="50" height="50" relative="1" as="geometry">
            <mxPoint x="390" y="350" as="sourcePoint" />
            <mxPoint x="440" y="300" as="targetPoint" />
          </mxGeometry>
        </mxCell>
        <mxCell id="DAt_VKD0Xn_MFGfTd1is-29" value="" style="endArrow=classic;html=1;rounded=0;" parent="1" edge="1">
          <mxGeometry width="50" height="50" relative="1" as="geometry">
            <mxPoint x="-70" y="560" as="sourcePoint" />
            <mxPoint x="-160" y="670" as="targetPoint" />
          </mxGeometry>
        </mxCell>
        <mxCell id="DAt_VKD0Xn_MFGfTd1is-36" value="&lt;div style=&quot;margin: 0px 0px 0px 50px; padding: 10px 20px; box-sizing: inherit; white-space: break-spaces; color: rgb(74, 74, 74); font-family: &amp;quot;Exo 2&amp;quot;, sans-serif; text-align: start;&quot; class=&quot;gpt-chat__message-text&quot;&gt;&lt;p style=&quot;text-align: justify; margin: 0px; padding: 0px; box-sizing: inherit;&quot;&gt;&lt;font style=&quot;font-size: 12px;&quot;&gt; Описание действий: Пациент отправляет запрос на регистрацию. Регистратор регистрирует пользователя и добавляет &lt;/font&gt;&lt;/p&gt;&lt;p style=&quot;text-align: justify; margin: 0px; padding: 0px; box-sizing: inherit;&quot;&gt;&lt;font style=&quot;font-size: 12px;&quot;&gt;его в базу данных пациентов. &lt;/font&gt;&lt;span style=&quot;background-color: initial;&quot;&gt;Пациент совершает запрос на запись к определенному врачу. Регистратор отправляет пользователю &lt;/span&gt;&lt;/p&gt;&lt;p style=&quot;text-align: justify; margin: 0px; padding: 0px; box-sizing: inherit;&quot;&gt;&lt;span style=&quot;background-color: initial;&quot;&gt;данные &lt;/span&gt;&lt;span style=&quot;background-color: initial;&quot;&gt;о свободных окнах в расписании конкретного врача. Пациент выбирает нужное время. Пациент отправляет запрос на оплату.&lt;/span&gt;&lt;/p&gt;&lt;p style=&quot;text-align: justify; margin: 0px; padding: 0px; box-sizing: inherit;&quot;&gt;&lt;font style=&quot;font-size: 12px;&quot;&gt;Регистратор генерирует счет и отправляет его пациенту. Пациент оплачивает счет, регистратор . Далее врачу приходит уведомление&lt;/font&gt;&lt;/p&gt;&lt;p style=&quot;text-align: justify; margin: 0px; padding: 0px; box-sizing: inherit;&quot;&gt;&lt;span style=&quot;background-color: initial;&quot;&gt; о новом пациенте. Врач заходит в базу данных пациентов и просматривает данные конкретного пациента(история болезни, &lt;/span&gt;&lt;/p&gt;&lt;p style=&quot;text-align: justify; margin: 0px; padding: 0px; box-sizing: inherit;&quot;&gt;&lt;span style=&quot;background-color: initial;&quot;&gt;ранее назначенные лекарства и тд). Пациент имеет возможность отменить запись и запросить возврат средств. В таком &lt;/span&gt;&lt;/p&gt;&lt;p style=&quot;text-align: justify; margin: 0px; padding: 0px; box-sizing: inherit;&quot;&gt;&lt;span style=&quot;background-color: initial;&quot;&gt;случае регистратор делает подтверждение возврата средств, информация в базе данных обновляется, врачу приходит уведомление об отмене.&lt;/span&gt;&lt;/p&gt;&lt;div style=&quot;text-align: justify; font-size: 14px;&quot;&gt;&lt;br&gt;&lt;/div&gt;&lt;/div&gt;&lt;div style=&quot;margin: 0px; padding: 0px; box-sizing: inherit; width: 910px; display: flex; justify-content: flex-end; color: rgb(74, 74, 74); font-family: &amp;quot;Exo 2&amp;quot;, sans-serif; font-size: 14px; text-align: start; text-wrap: wrap;&quot; class=&quot;r-w&quot;&gt;&lt;/div&gt;" style="text;html=1;align=center;verticalAlign=middle;resizable=0;points=[];autosize=1;strokeColor=none;fillColor=none;" parent="1" vertex="1">
          <mxGeometry x="350" y="560" width="930" height="150" as="geometry" />
        </mxCell>
        <mxCell id="G9mXrVpLe7CTFJwpsr8j-1" value="Расписание врачей" style="rounded=0;whiteSpace=wrap;html=1;" parent="1" vertex="1">
          <mxGeometry x="350" y="740" width="120" height="60" as="geometry" />
        </mxCell>
        <mxCell id="G9mXrVpLe7CTFJwpsr8j-3" value="" style="endArrow=none;html=1;rounded=0;" parent="1" source="G9mXrVpLe7CTFJwpsr8j-1" target="DAt_VKD0Xn_MFGfTd1is-3" edge="1">
          <mxGeometry width="50" height="50" relative="1" as="geometry">
            <mxPoint y="440" as="sourcePoint" />
            <mxPoint x="407" y="500" as="targetPoint" />
          </mxGeometry>
        </mxCell>
        <mxCell id="G9mXrVpLe7CTFJwpsr8j-4" value="" style="endArrow=classic;html=1;rounded=0;exitX=0.563;exitY=0.088;exitDx=0;exitDy=0;exitPerimeter=0;" parent="1" edge="1" source="G9mXrVpLe7CTFJwpsr8j-5">
          <mxGeometry width="50" height="50" relative="1" as="geometry">
            <mxPoint x="250" y="710" as="sourcePoint" />
            <mxPoint x="170" y="690" as="targetPoint" />
          </mxGeometry>
        </mxCell>
        <mxCell id="G9mXrVpLe7CTFJwpsr8j-5" value="&lt;ol&gt;&lt;li&gt;13: добавление информации о бронировании&amp;nbsp;&lt;/li&gt;&lt;/ol&gt;" style="text;html=1;align=center;verticalAlign=middle;resizable=0;points=[];autosize=1;strokeColor=none;fillColor=none;" parent="1" vertex="1">
          <mxGeometry x="80" y="710" width="320" height="50" as="geometry" />
        </mxCell>
        <mxCell id="G9mXrVpLe7CTFJwpsr8j-6" value="" style="endArrow=none;html=1;rounded=0;" parent="1" source="G9mXrVpLe7CTFJwpsr8j-1" target="DAt_VKD0Xn_MFGfTd1is-2" edge="1">
          <mxGeometry width="50" height="50" relative="1" as="geometry">
            <mxPoint x="194" y="420" as="sourcePoint" />
            <mxPoint x="40" y="432" as="targetPoint" />
          </mxGeometry>
        </mxCell>
        <mxCell id="G9mXrVpLe7CTFJwpsr8j-7" value="" style="endArrow=classic;html=1;rounded=0;" parent="1" edge="1">
          <mxGeometry width="50" height="50" relative="1" as="geometry">
            <mxPoint x="290" y="510" as="sourcePoint" />
            <mxPoint x="330" y="585" as="targetPoint" />
          </mxGeometry>
        </mxCell>
        <mxCell id="G9mXrVpLe7CTFJwpsr8j-8" value="&lt;div&gt;&lt;div&gt;5: просмотр свободных окон в&lt;/div&gt;&lt;div&gt;&amp;nbsp;расписании конкретного врача&lt;/div&gt;&lt;/div&gt;&lt;div&gt;12: добавление бронирования в расписание&lt;/div&gt;&lt;div&gt;21: обновление информации о пациенте&lt;br&gt;&lt;/div&gt;" style="text;html=1;align=center;verticalAlign=middle;resizable=0;points=[];autosize=1;strokeColor=none;fillColor=none;" parent="1" vertex="1">
          <mxGeometry x="260" y="470" width="270" height="70" as="geometry" />
        </mxCell>
        <mxCell id="4wAgHKKhV1sCm-61cUOR-2" value="11: уведомление об оплате счета" style="text;html=1;align=center;verticalAlign=middle;resizable=0;points=[];autosize=1;strokeColor=none;fillColor=none;" vertex="1" parent="1">
          <mxGeometry x="300" y="120" width="210" height="30" as="geometry" />
        </mxCell>
        <mxCell id="4wAgHKKhV1sCm-61cUOR-4" value="" style="endArrow=classic;html=1;rounded=0;" edge="1" parent="1">
          <mxGeometry width="50" height="50" relative="1" as="geometry">
            <mxPoint x="500" y="100" as="sourcePoint" />
            <mxPoint x="370" y="180" as="targetPoint" />
          </mxGeometry>
        </mxCell>
        <mxCell id="4wAgHKKhV1sCm-61cUOR-6" value="14: уведомление врача о новом бронировании&lt;div&gt;22: уведомление врача об отмене бронирования&lt;/div&gt;" style="text;html=1;align=center;verticalAlign=middle;resizable=0;points=[];autosize=1;strokeColor=none;fillColor=none;" vertex="1" parent="1">
          <mxGeometry x="-380" y="585" width="300" height="40" as="geometry" />
        </mxCell>
        <mxCell id="4wAgHKKhV1sCm-61cUOR-7" value="" style="endArrow=none;html=1;rounded=0;" edge="1" parent="1" source="DAt_VKD0Xn_MFGfTd1is-3" target="DAt_VKD0Xn_MFGfTd1is-5">
          <mxGeometry width="50" height="50" relative="1" as="geometry">
            <mxPoint x="142" y="360" as="sourcePoint" />
            <mxPoint x="-170" y="759" as="targetPoint" />
          </mxGeometry>
        </mxCell>
        <mxCell id="4wAgHKKhV1sCm-61cUOR-8" value="15: просмотр информации о&lt;div&gt;&amp;nbsp;конкретном пациенте&lt;/div&gt;" style="text;html=1;align=center;verticalAlign=middle;resizable=0;points=[];autosize=1;strokeColor=none;fillColor=none;" vertex="1" parent="1">
          <mxGeometry x="-130" y="670" width="180" height="40" as="geometry" />
        </mxCell>
        <mxCell id="4wAgHKKhV1sCm-61cUOR-9" value="" style="endArrow=classic;html=1;rounded=0;" edge="1" parent="1">
          <mxGeometry width="50" height="50" relative="1" as="geometry">
            <mxPoint x="345" y="230" as="sourcePoint" />
            <mxPoint x="445" y="170" as="targetPoint" />
          </mxGeometry>
        </mxCell>
        <mxCell id="4wAgHKKhV1sCm-61cUOR-10" value="18: подтверждение возврата средств" style="text;html=1;align=center;verticalAlign=middle;resizable=0;points=[];autosize=1;strokeColor=none;fillColor=none;" vertex="1" parent="1">
          <mxGeometry x="320" y="210" width="230" height="30" as="geometry" />
        </mxCell>
        <mxCell id="4wAgHKKhV1sCm-61cUOR-11" value="" style="endArrow=classic;html=1;rounded=0;" edge="1" parent="1">
          <mxGeometry width="50" height="50" relative="1" as="geometry">
            <mxPoint x="310" y="-15" as="sourcePoint" />
            <mxPoint x="200" y="-5" as="targetPoint" />
          </mxGeometry>
        </mxCell>
        <mxCell id="4wAgHKKhV1sCm-61cUOR-12" value="19: возврат средств" style="text;html=1;align=center;verticalAlign=middle;resizable=0;points=[];autosize=1;strokeColor=none;fillColor=none;" vertex="1" parent="1">
          <mxGeometry x="205" y="-42" width="130" height="30" as="geometry" />
        </mxCell>
      </root>
    </mxGraphModel>
  </diagram>
</mxfile>
